<svg xmlns="http://www.w3.org/2000/svg" xmlns:xlink="http://www.w3.org/1999/xlink" width="200" zoomAndPan="magnify" viewBox="0 0 150 37.5" height="50" preserveAspectRatio="xMidYMid meet" version="1.0"><defs><g/></defs><g fill="#000000" fill-opacity="1"><g transform="translate(34.596273, 18.018323)"><g><path d="M 1.03125 -7.890625 L 4.28125 -7.890625 C 5.457031 -7.890625 6.429688 -7.515625 7.203125 -6.765625 C 7.972656 -6.023438 8.359375 -5.082031 8.359375 -3.9375 C 8.359375 -2.800781 7.96875 -1.859375 7.1875 -1.109375 C 6.414062 -0.367188 5.429688 0 4.234375 0 L 1.03125 0 Z M 2.375 -6.703125 L 2.375 -1.203125 L 4.3125 -1.203125 C 5.082031 -1.203125 5.722656 -1.457031 6.234375 -1.96875 C 6.753906 -2.476562 7.015625 -3.132812 7.015625 -3.9375 C 7.015625 -4.738281 6.75 -5.398438 6.21875 -5.921875 C 5.6875 -6.441406 5.03125 -6.703125 4.25 -6.703125 Z M 2.375 -6.703125 "/></g></g></g><g fill="#000000" fill-opacity="1"><g transform="translate(43.809474, 18.018323)"><g><path d="M 2.375 0 L 1.03125 0 L 1.03125 -7.890625 L 2.375 -7.890625 Z M 2.375 0 "/></g></g></g><g fill="#000000" fill-opacity="1"><g transform="translate(47.688917, 18.018323)"><g><path d="M 4.53125 -7.9375 C 5.09375 -7.9375 5.632812 -7.828125 6.15625 -7.609375 C 6.6875 -7.390625 7.144531 -7.09375 7.53125 -6.71875 L 6.75 -5.734375 C 6.46875 -6.046875 6.128906 -6.289062 5.734375 -6.46875 C 5.347656 -6.65625 4.957031 -6.75 4.5625 -6.75 C 3.769531 -6.75 3.097656 -6.476562 2.546875 -5.9375 C 2.003906 -5.40625 1.734375 -4.75 1.734375 -3.96875 C 1.734375 -3.1875 2.003906 -2.523438 2.546875 -1.984375 C 3.097656 -1.453125 3.769531 -1.1875 4.5625 -1.1875 C 5.375 -1.1875 6.101562 -1.5 6.75 -2.125 L 7.546875 -1.234375 C 7.140625 -0.835938 6.664062 -0.519531 6.125 -0.28125 C 5.582031 -0.0507812 5.035156 0.0625 4.484375 0.0625 C 3.328125 0.0625 2.351562 -0.320312 1.5625 -1.09375 C 0.78125 -1.863281 0.390625 -2.816406 0.390625 -3.953125 C 0.390625 -5.078125 0.785156 -6.019531 1.578125 -6.78125 C 2.378906 -7.550781 3.363281 -7.9375 4.53125 -7.9375 Z M 4.53125 -7.9375 "/></g></g></g><g fill="#000000" fill-opacity="1"><g transform="translate(56.022559, 18.018323)"><g><path d="M 6.4375 -6.703125 L 3.921875 -6.703125 L 3.921875 0 L 2.59375 0 L 2.59375 -6.703125 L 0.09375 -6.703125 L 0.09375 -7.890625 L 6.4375 -7.890625 Z M 6.4375 -6.703125 "/></g></g></g><g fill="#000000" fill-opacity="1"><g transform="translate(63.025581, 18.018323)"><g><path d="M 2.375 0 L 1.03125 0 L 1.03125 -7.890625 L 2.375 -7.890625 Z M 2.375 0 "/></g></g></g><g fill="#000000" fill-opacity="1"><g transform="translate(66.905024, 18.018323)"><g><path d="M 1.59375 -6.78125 C 2.394531 -7.550781 3.382812 -7.9375 4.5625 -7.9375 C 5.75 -7.9375 6.742188 -7.550781 7.546875 -6.78125 C 8.347656 -6.019531 8.75 -5.070312 8.75 -3.9375 C 8.75 -2.8125 8.347656 -1.863281 7.546875 -1.09375 C 6.742188 -0.320312 5.75 0.0625 4.5625 0.0625 C 3.382812 0.0625 2.394531 -0.320312 1.59375 -1.09375 C 0.789062 -1.863281 0.390625 -2.8125 0.390625 -3.9375 C 0.390625 -5.070312 0.789062 -6.019531 1.59375 -6.78125 Z M 4.578125 -6.734375 C 3.796875 -6.734375 3.125 -6.460938 2.5625 -5.921875 C 2.007812 -5.390625 1.734375 -4.734375 1.734375 -3.953125 C 1.734375 -3.171875 2.015625 -2.503906 2.578125 -1.953125 C 3.140625 -1.410156 3.804688 -1.140625 4.578125 -1.140625 C 5.347656 -1.140625 6.007812 -1.410156 6.5625 -1.953125 C 7.113281 -2.503906 7.390625 -3.171875 7.390625 -3.953125 C 7.390625 -4.734375 7.113281 -5.390625 6.5625 -5.921875 C 6.007812 -6.460938 5.347656 -6.734375 4.578125 -6.734375 Z M 4.578125 -6.734375 "/></g></g></g><g fill="#000000" fill-opacity="1"><g transform="translate(76.512904, 18.018323)"><g><path d="M 7.890625 0 L 6.578125 0 L 2.375 -5.65625 L 2.375 0 L 1.03125 0 L 1.03125 -7.890625 L 2.34375 -7.890625 L 6.578125 -2.21875 L 6.578125 -7.890625 L 7.890625 -7.890625 Z M 7.890625 0 "/></g></g></g><g fill="#000000" fill-opacity="1"><g transform="translate(85.917803, 18.018323)"><g><path d="M 6.140625 -1.78125 L 2.15625 -1.78125 L 1.40625 0 L 0.015625 0 L 3.5 -7.890625 L 4.859375 -7.890625 L 8.3125 0 L 6.890625 0 Z M 5.625 -2.96875 L 4.140625 -6.46875 L 2.65625 -2.96875 Z M 5.625 -2.96875 "/></g></g></g><g fill="#000000" fill-opacity="1"><g transform="translate(94.713779, 18.018323)"><g><path d="M 6.046875 0 L 4.609375 -2.390625 C 4.523438 -2.378906 4.398438 -2.375 4.234375 -2.375 L 2.375 -2.375 L 2.375 0 L 1.03125 0 L 1.03125 -7.890625 L 4.234375 -7.890625 C 5.242188 -7.890625 6.023438 -7.65625 6.578125 -7.1875 C 7.140625 -6.71875 7.421875 -6.054688 7.421875 -5.203125 C 7.421875 -4.566406 7.28125 -4.03125 7 -3.59375 C 6.71875 -3.15625 6.3125 -2.835938 5.78125 -2.640625 L 7.5625 0 Z M 2.375 -3.578125 L 4.234375 -3.578125 C 5.515625 -3.578125 6.15625 -4.109375 6.15625 -5.171875 C 6.15625 -6.191406 5.515625 -6.703125 4.234375 -6.703125 L 2.375 -6.703125 Z M 2.375 -3.578125 "/></g></g></g><g fill="#000000" fill-opacity="1"><g transform="translate(103.340607, 18.018323)"><g><path d="M 4.28125 -2.625 L 4.28125 0 L 2.953125 0 L 2.953125 -2.578125 L 0.015625 -7.890625 L 1.359375 -7.890625 L 3.609375 -4.046875 L 5.828125 -7.890625 L 7.171875 -7.890625 Z M 4.28125 -2.625 "/></g></g></g><g fill="#4788c7" fill-opacity="1"><g transform="translate(44.905327, 25.667812)"><g><path d="M 2.609375 -2.75 L 0.96875 -2.75 L 0.96875 -1.8125 L 2.453125 -1.8125 L 2.453125 -1.328125 L 0.96875 -1.328125 L 0.96875 0 L 0.421875 0 L 0.421875 -3.25 L 2.609375 -3.25 Z M 2.609375 -2.75 "/></g></g></g><g fill="#4788c7" fill-opacity="1"><g transform="translate(48.376392, 25.667812)"><g><path d="M 0.96875 0 L 0.421875 0 L 0.421875 -3.25 L 0.96875 -3.25 Z M 0.96875 0 "/></g></g></g><g fill="#4788c7" fill-opacity="1"><g transform="translate(50.582298, 25.667812)"><g><path d="M 3.25 0 L 2.703125 0 L 0.96875 -2.328125 L 0.96875 0 L 0.421875 0 L 0.421875 -3.25 L 0.96875 -3.25 L 2.703125 -0.921875 L 2.703125 -3.25 L 3.25 -3.25 Z M 3.25 0 "/></g></g></g><g fill="#4788c7" fill-opacity="1"><g transform="translate(55.058999, 25.667812)"><g><path d="M 0.421875 -3.25 L 1.765625 -3.25 C 2.242188 -3.25 2.640625 -3.09375 2.953125 -2.78125 C 3.273438 -2.476562 3.4375 -2.09375 3.4375 -1.625 C 3.4375 -1.15625 3.273438 -0.765625 2.953125 -0.453125 C 2.640625 -0.148438 2.238281 0 1.75 0 L 0.421875 0 Z M 0.96875 -2.75 L 0.96875 -0.484375 L 1.765625 -0.484375 C 2.085938 -0.484375 2.351562 -0.585938 2.5625 -0.796875 C 2.78125 -1.015625 2.890625 -1.285156 2.890625 -1.609375 C 2.890625 -1.941406 2.78125 -2.210938 2.5625 -2.421875 C 2.34375 -2.640625 2.070312 -2.75 1.75 -2.75 Z M 0.96875 -2.75 "/></g></g></g><g fill="#4788c7" fill-opacity="1"><g transform="translate(59.456915, 25.667812)"><g><path d="M 0.96875 0 L 0.421875 0 L 0.421875 -3.25 L 0.96875 -3.25 Z M 0.96875 0 "/></g></g></g><g fill="#4788c7" fill-opacity="1"><g transform="translate(61.662821, 25.667812)"><g><path d="M 3.25 0 L 2.703125 0 L 0.96875 -2.328125 L 0.96875 0 L 0.421875 0 L 0.421875 -3.25 L 0.96875 -3.25 L 2.703125 -0.921875 L 2.703125 -3.25 L 3.25 -3.25 Z M 3.25 0 "/></g></g></g><g fill="#4788c7" fill-opacity="1"><g transform="translate(66.139523, 25.667812)"><g><path d="M 2.65625 -1.59375 L 3.125 -1.59375 L 3.125 -0.40625 C 2.957031 -0.269531 2.757812 -0.164062 2.53125 -0.09375 C 2.300781 -0.0195312 2.078125 0.015625 1.859375 0.015625 C 1.378906 0.015625 0.972656 -0.140625 0.640625 -0.453125 C 0.316406 -0.765625 0.15625 -1.148438 0.15625 -1.609375 C 0.15625 -2.078125 0.320312 -2.46875 0.65625 -2.78125 C 0.988281 -3.101562 1.398438 -3.265625 1.890625 -3.265625 C 2.117188 -3.265625 2.34375 -3.222656 2.5625 -3.140625 C 2.789062 -3.054688 2.984375 -2.945312 3.140625 -2.8125 L 2.828125 -2.40625 C 2.566406 -2.65625 2.253906 -2.78125 1.890625 -2.78125 C 1.566406 -2.78125 1.289062 -2.664062 1.0625 -2.4375 C 0.832031 -2.21875 0.71875 -1.945312 0.71875 -1.625 C 0.71875 -1.300781 0.832031 -1.023438 1.0625 -0.796875 C 1.289062 -0.578125 1.570312 -0.46875 1.90625 -0.46875 C 2.15625 -0.46875 2.40625 -0.539062 2.65625 -0.6875 Z M 2.65625 -1.59375 "/></g></g></g><g fill="#4788c7" fill-opacity="1"><g transform="translate(70.416951, 25.667812)"><g/></g></g><g fill="#4788c7" fill-opacity="1"><g transform="translate(72.418949, 25.667812)"><g><path d="M 3.859375 0 L 3.359375 0 L 3.34375 -2.421875 L 2.328125 -0.34375 L 1.96875 -0.34375 L 0.9375 -2.421875 L 0.9375 0 L 0.421875 0 L 0.421875 -3.25 L 1.078125 -3.25 L 2.15625 -1.09375 L 3.21875 -3.25 L 3.859375 -3.25 Z M 3.859375 0 "/></g></g></g><g fill="#4788c7" fill-opacity="1"><g transform="translate(77.512006, 25.667812)"><g><path d="M 2.75 -2.75 L 0.96875 -2.75 L 0.96875 -1.875 L 2.5625 -1.875 L 2.5625 -1.390625 L 0.96875 -1.390625 L 0.96875 -0.484375 L 2.796875 -0.484375 L 2.796875 0 L 0.421875 0 L 0.421875 -3.25 L 2.75 -3.25 Z M 2.75 -2.75 "/></g></g></g><g fill="#4788c7" fill-opacity="1"><g transform="translate(81.358443, 25.667812)"><g><path d="M 2.53125 -0.734375 L 0.890625 -0.734375 L 0.578125 0 L 0 0 L 1.4375 -3.25 L 2 -3.25 L 3.421875 0 L 2.828125 0 Z M 2.3125 -1.21875 L 1.703125 -2.65625 L 1.09375 -1.21875 Z M 2.3125 -1.21875 "/></g></g></g><g fill="#4788c7" fill-opacity="1"><g transform="translate(85.584891, 25.667812)"><g><path d="M 3.25 0 L 2.703125 0 L 0.96875 -2.328125 L 0.96875 0 L 0.421875 0 L 0.421875 -3.25 L 0.96875 -3.25 L 2.703125 -0.921875 L 2.703125 -3.25 L 3.25 -3.25 Z M 3.25 0 "/></g></g></g><g fill="#4788c7" fill-opacity="1"><g transform="translate(90.061592, 25.667812)"><g><path d="M 0.96875 0 L 0.421875 0 L 0.421875 -3.25 L 0.96875 -3.25 Z M 0.96875 0 "/></g></g></g><g fill="#4788c7" fill-opacity="1"><g transform="translate(92.267497, 25.667812)"><g><path d="M 3.25 0 L 2.703125 0 L 0.96875 -2.328125 L 0.96875 0 L 0.421875 0 L 0.421875 -3.25 L 0.96875 -3.25 L 2.703125 -0.921875 L 2.703125 -3.25 L 3.25 -3.25 Z M 3.25 0 "/></g></g></g><g fill="#4788c7" fill-opacity="1"><g transform="translate(96.7442, 25.667812)"><g><path d="M 2.65625 -1.59375 L 3.125 -1.59375 L 3.125 -0.40625 C 2.957031 -0.269531 2.757812 -0.164062 2.53125 -0.09375 C 2.300781 -0.0195312 2.078125 0.015625 1.859375 0.015625 C 1.378906 0.015625 0.972656 -0.140625 0.640625 -0.453125 C 0.316406 -0.765625 0.15625 -1.148438 0.15625 -1.609375 C 0.15625 -2.078125 0.320312 -2.46875 0.65625 -2.78125 C 0.988281 -3.101562 1.398438 -3.265625 1.890625 -3.265625 C 2.117188 -3.265625 2.34375 -3.222656 2.5625 -3.140625 C 2.789062 -3.054688 2.984375 -2.945312 3.140625 -2.8125 L 2.828125 -2.40625 C 2.566406 -2.65625 2.253906 -2.78125 1.890625 -2.78125 C 1.566406 -2.78125 1.289062 -2.664062 1.0625 -2.4375 C 0.832031 -2.21875 0.71875 -1.945312 0.71875 -1.625 C 0.71875 -1.300781 0.832031 -1.023438 1.0625 -0.796875 C 1.289062 -0.578125 1.570312 -0.46875 1.90625 -0.46875 C 2.15625 -0.46875 2.40625 -0.539062 2.65625 -0.6875 Z M 2.65625 -1.59375 "/></g></g></g></svg>